<?xml version="1.0" encoding="UTF-8"?>
<svg version="1.1" viewBox="0 0 1808 1808" width="1280" height="1280" xmlns="http://www.w3.org/2000/svg">
<path transform="translate(70)" d="m0 0h558l9 6 16 9 14 10 10 9 8 10 9 15 5 13 2 12 1 183-1 135 88-1 12-1 1-88 1-21 3-16 5-14 7-13 8-10 9-10 8-7 18-11 15-6 12-3 7-1h57l49 1 1-30 1-60 1-26 5-19 8-16 12-16 12-11 10-7 24-14 3-2h655v2l9 3 14 8 12 8 10 9 8 8 12 19 9 16 1 2v448l-4 9-11 20-8 11-9 10-9 8-12 8-15 6-16 4-14 2-15 1h-89l1 23v82l-3 17-6 17-9 16-13 16-8 8-10 7-14 7-16 4-16 2-14 1h-92v58l-1 145 19-1 41-1h37l20 2 16 4 14 6 14 9 12 11 7 8 9 14 6 14 5 17 1 6 1 16 1 95h93l18 1 14 3 15 5 13 7 13 10 8 8 9 13 12 20 5 11v448l-5 8-8 17-8 11-9 10-5 5-9 7-16 8-19 9-2 2h-645l-9-6-23-12-16-12-8-9-10-16-7-14-5-20-1-12v-99l-1-2-36 1h-61l-19-2-16-5-16-8-13-9-9-8-7-8-9-13-6-12-6-20-2-16v-77l1-24h-101v56l-1 252-2 21-5 13-7 12-8 11-9 10-8 7-15 8-23 11-3 2h-545l-24-15-11-7-11-9-7-7-11-16-8-16-4-6v-1660l6-11 11-18 10-12 11-9 13-9 18-12zm362 199-231 1-1 3v1404h301l1-97 1-215 2-14 6-17 5-9 9-12 10-11 18-13 14-7 12-4 7-1 20-1h286l22 1 14 2 16 5 11 6 11 8 10 9 9 12 8 14 5 12 3 13 2 26 1 93 25-1h64l24 2 17 4 12 5 13 7 9 7 10 9 8 10 8 14 6 16 2 9 2 24 1 94h399l1-1 1-91v-109l-1-1-106-1-19-3-15-6-13-8-11-9-12-12-9-14-8-16-4-12-2-14-1-105-1-1h-106l-20-4-18-8-12-8-11-9-8-8-10-14-7-15-5-19-1-8-1-30v-379l2-18 5-16 6-15 8-11 7-8 10-10 20-12 13-5 18-4h109l1-1 1-33 1-65 1-18 5-17 8-16 7-12 12-13 10-8 14-8 16-6 16-3 109-1 1-1 1-101v-100h-397l-6 1 1 28v75l-2 15-7 21-8 15-9 12-11 11-11 7-14 7-17 4-16 2-38 2-67 1-1 2v95l-2 23-4 13-8 16-7 12-12 13-9 8-10 6-21 7-18 3-12 1-36 1h-263l-19-2-14-4-16-8-13-9-9-8-11-14-8-14-5-16-2-11-1-14-1-301-39-1z" fill="#FEFEFE"/>
</svg>
