<?xml version="1.0" encoding="UTF-8"?>
<svg xmlns="http://www.w3.org/2000/svg" xmlns:xlink="http://www.w3.org/1999/xlink" width="500px" height="500px" viewBox="0 0 500 500" version="1.1">
<g id="surface1">
<path style=" stroke:none;fill-rule:nonzero;fill:rgb(99.607843%,99.607843%,99.607843%);fill-opacity:1;" d="M 19.359375 0 L 173.671875 0 L 176.160156 1.660156 L 180.585938 4.148438 L 184.457031 6.914062 L 187.222656 9.402344 L 189.4375 12.167969 L 191.925781 16.316406 L 193.308594 19.910156 L 193.859375 23.230469 L 194.136719 73.839844 L 193.859375 111.171875 L 218.195312 110.894531 L 221.515625 110.621094 L 221.792969 86.28125 L 222.070312 80.476562 L 222.898438 76.050781 L 224.28125 72.179688 L 226.21875 68.585938 L 228.429688 65.820312 L 230.917969 63.054688 L 233.128906 61.117188 L 238.109375 58.074219 L 242.257812 56.414062 L 245.574219 55.585938 L 247.511719 55.308594 L 263.273438 55.308594 L 276.824219 55.585938 L 277.101562 47.289062 L 277.378906 30.695312 L 277.65625 23.507812 L 279.039062 18.253906 L 281.25 13.828125 L 284.570312 9.402344 L 287.886719 6.359375 L 290.652344 4.425781 L 297.289062 0.554688 L 298.121094 0 L 479.257812 0 L 479.257812 0.554688 L 481.746094 1.382812 L 485.621094 3.59375 L 488.9375 5.808594 L 491.703125 8.296875 L 493.914062 10.507812 L 497.234375 15.761719 L 499.722656 20.1875 L 500 20.742188 L 500 144.636719 L 498.894531 147.125 L 495.851562 152.65625 L 493.640625 155.695312 L 491.152344 158.460938 L 488.660156 160.675781 L 485.34375 162.886719 L 481.195312 164.546875 L 476.769531 165.652344 L 472.898438 166.207031 L 468.75 166.480469 L 444.136719 166.480469 L 444.414062 172.84375 L 444.414062 195.519531 L 443.585938 200.222656 L 441.925781 204.921875 L 439.4375 209.347656 L 435.839844 213.773438 L 433.628906 215.984375 L 430.863281 217.921875 L 426.992188 219.855469 L 422.566406 220.960938 L 418.140625 221.515625 L 414.269531 221.792969 L 388.828125 221.792969 L 388.828125 237.832031 L 388.550781 277.929688 L 393.804688 277.65625 L 405.144531 277.378906 L 415.375 277.378906 L 420.90625 277.929688 L 425.332031 279.039062 L 429.203125 280.695312 L 433.074219 283.1875 L 436.394531 286.226562 L 438.328125 288.441406 L 440.820312 292.3125 L 442.476562 296.183594 L 443.859375 300.886719 L 444.136719 302.542969 L 444.414062 306.96875 L 444.691406 333.242188 L 470.410156 333.242188 L 475.386719 333.519531 L 479.257812 334.347656 L 483.40625 335.730469 L 487.003906 337.664062 L 490.597656 340.429688 L 492.808594 342.644531 L 495.296875 346.238281 L 498.617188 351.769531 L 500 354.8125 L 500 478.707031 L 498.617188 480.917969 L 496.40625 485.621094 L 494.191406 488.660156 L 491.703125 491.425781 L 490.320312 492.808594 L 487.832031 494.746094 L 483.40625 496.957031 L 478.152344 499.445312 L 477.597656 500 L 299.226562 500 L 296.738281 498.339844 L 290.375 495.023438 L 285.953125 491.703125 L 283.738281 489.214844 L 280.972656 484.789062 L 279.039062 480.917969 L 277.65625 475.386719 L 277.378906 472.070312 L 277.378906 444.691406 L 277.101562 444.136719 L 267.144531 444.414062 L 250.277344 444.414062 L 245.023438 443.859375 L 240.597656 442.476562 L 236.171875 440.265625 L 232.578125 437.777344 L 230.089844 435.5625 L 228.152344 433.351562 L 225.664062 429.757812 L 224.003906 426.4375 L 222.34375 420.90625 L 221.792969 416.480469 L 221.792969 395.1875 L 222.070312 388.550781 L 194.136719 388.550781 L 194.136719 404.039062 L 193.859375 473.726562 L 193.308594 479.535156 L 191.925781 483.128906 L 189.988281 486.449219 L 187.777344 489.492188 L 185.289062 492.257812 L 183.074219 494.191406 L 178.925781 496.40625 L 172.566406 499.445312 L 171.738281 500 L 21.019531 500 L 14.378906 495.851562 L 11.339844 493.914062 L 8.296875 491.425781 L 6.359375 489.492188 L 3.320312 485.066406 L 1.105469 480.640625 L 0 478.980469 L 0 19.910156 L 1.660156 16.871094 L 4.703125 11.890625 L 7.46875 8.574219 L 10.507812 6.085938 L 14.105469 3.59375 L 19.082031 0.277344 Z M 119.46875 55.03125 L 55.585938 55.308594 L 55.308594 56.140625 L 55.308594 444.414062 L 138.550781 444.414062 L 138.828125 417.589844 L 139.105469 358.128906 L 139.65625 354.257812 L 141.316406 349.558594 L 142.699219 347.070312 L 145.1875 343.75 L 147.953125 340.707031 L 152.929688 337.113281 L 156.804688 335.175781 L 160.121094 334.070312 L 162.058594 333.792969 L 167.589844 333.519531 L 246.679688 333.519531 L 252.765625 333.792969 L 256.636719 334.347656 L 261.0625 335.730469 L 264.105469 337.390625 L 267.144531 339.601562 L 269.910156 342.089844 L 272.402344 345.410156 L 274.613281 349.28125 L 275.996094 352.597656 L 276.824219 356.195312 L 277.378906 363.386719 L 277.65625 389.105469 L 284.570312 388.828125 L 302.269531 388.828125 L 308.90625 389.378906 L 313.605469 390.488281 L 316.925781 391.871094 L 320.519531 393.804688 L 323.007812 395.742188 L 325.773438 398.230469 L 327.988281 400.996094 L 330.199219 404.867188 L 331.859375 409.292969 L 332.410156 411.78125 L 332.964844 418.417969 L 333.242188 444.414062 L 443.585938 444.414062 L 443.859375 444.136719 L 444.136719 418.972656 L 444.136719 388.828125 L 443.859375 388.550781 L 414.546875 388.273438 L 409.292969 387.445312 L 405.144531 385.785156 L 401.546875 383.574219 L 398.507812 381.085938 L 395.1875 377.765625 L 392.699219 373.894531 L 390.488281 369.46875 L 389.378906 366.152344 L 388.828125 362.277344 L 388.550781 333.242188 L 388.273438 332.964844 L 358.960938 332.964844 L 353.429688 331.859375 L 348.453125 329.644531 L 345.132812 327.433594 L 342.089844 324.945312 L 339.878906 322.730469 L 337.113281 318.859375 L 335.175781 314.710938 L 333.792969 309.457031 L 333.519531 307.246094 L 333.242188 298.949219 L 333.242188 194.136719 L 333.792969 189.160156 L 335.175781 184.734375 L 336.835938 180.585938 L 339.046875 177.542969 L 340.984375 175.332031 L 343.75 172.566406 L 349.28125 169.246094 L 352.875 167.863281 L 357.855469 166.757812 L 387.996094 166.757812 L 388.273438 166.480469 L 388.550781 157.355469 L 388.828125 139.378906 L 389.105469 134.402344 L 390.488281 129.703125 L 392.699219 125.277344 L 394.636719 121.957031 L 397.953125 118.363281 L 400.71875 116.152344 L 404.589844 113.9375 L 409.015625 112.277344 L 413.441406 111.449219 L 443.585938 111.171875 L 443.859375 110.894531 L 444.136719 82.964844 L 444.136719 55.308594 L 334.347656 55.308594 L 332.6875 55.585938 L 332.964844 63.328125 L 332.964844 84.070312 L 332.410156 88.21875 L 330.476562 94.027344 L 328.261719 98.175781 L 325.773438 101.492188 L 322.730469 104.535156 L 319.691406 106.472656 L 315.820312 108.40625 L 311.117188 109.511719 L 306.691406 110.066406 L 296.183594 110.621094 L 277.65625 110.894531 L 277.378906 111.449219 L 277.378906 137.722656 L 276.824219 144.082031 L 275.71875 147.675781 L 273.507812 152.101562 L 271.570312 155.421875 L 268.253906 159.015625 L 265.761719 161.226562 L 262.996094 162.886719 L 257.191406 164.824219 L 252.210938 165.652344 L 248.894531 165.929688 L 238.9375 166.207031 L 166.207031 166.207031 L 160.953125 165.652344 L 157.078125 164.546875 L 152.65625 162.335938 L 149.058594 159.84375 L 146.570312 157.632812 L 143.527344 153.761719 L 141.316406 149.890625 L 139.933594 145.464844 L 139.378906 142.421875 L 139.105469 138.550781 L 138.828125 55.308594 L 128.042969 55.03125 Z M 119.46875 55.03125 "/>
</g>
</svg>
