<?xml version="1.0" encoding="UTF-8"?>
<svg xmlns="http://www.w3.org/2000/svg" xmlns:xlink="http://www.w3.org/1999/xlink" width="500px" height="500px" viewBox="0 0 500 500" version="1.1">
<g id="surface1">
<path style=" stroke:none;fill-rule:nonzero;fill:rgb(100%,100%,100%);fill-opacity:1;" d="M 45.691406 2.15625 L 487.929688 2.15625 L 488.792969 3.878906 L 488.792969 303.878906 L 485.777344 306.464844 L 482.328125 310.34375 L 479.742188 312.5 L 477.15625 315.515625 L 474.136719 318.101562 L 471.984375 320.691406 L 469.398438 322.84375 L 466.808594 325.863281 L 463.792969 328.449219 L 461.636719 331.035156 L 458.621094 333.621094 L 456.464844 336.207031 L 453.878906 338.363281 L 451.292969 341.378906 L 448.707031 343.535156 L 446.121094 346.550781 L 443.535156 348.707031 L 440.949219 351.722656 L 438.363281 353.878906 L 435.777344 356.898438 L 433.191406 359.050781 L 430.601562 362.070312 L 428.015625 364.222656 L 425.429688 367.242188 L 422.84375 369.398438 L 420.257812 372.414062 L 417.671875 374.570312 L 415.085938 377.585938 L 412.5 379.742188 L 409.914062 382.757812 L 407.328125 384.914062 L 404.742188 387.929688 L 402.15625 390.085938 L 399.570312 393.101562 L 396.984375 395.257812 L 394.398438 398.277344 L 393.535156 398.277344 L 392.671875 400 L 391.808594 400 L 390.949219 401.722656 L 390.085938 401.722656 L 389.222656 403.449219 L 388.363281 403.449219 L 387.5 405.171875 L 386.636719 405.171875 L 385.777344 406.898438 L 384.914062 406.898438 L 384.050781 408.621094 L 381.464844 410.777344 L 378.878906 413.792969 L 375.863281 416.378906 L 373.707031 418.964844 L 370.691406 421.550781 L 368.535156 424.136719 L 365.085938 427.15625 L 359.050781 433.191406 L 358.191406 433.621094 L 261.636719 434.050781 L 258.191406 437.070312 L 242.671875 452.585938 L 240.515625 455.171875 L 237.5 457.757812 L 235.34375 460.34375 L 232.328125 462.929688 L 230.171875 465.515625 L 227.15625 468.101562 L 225 470.691406 L 221.984375 473.277344 L 219.828125 475.863281 L 216.808594 478.449219 L 215.949219 479.742188 L 215.085938 479.742188 L 214.222656 481.464844 L 209.484375 486.207031 L 206.035156 489.222656 L 203.015625 492.242188 L 200.863281 494.828125 L 198.707031 496.984375 L 196.550781 498.277344 L 134.914062 498.277344 L 132.328125 497.84375 L 131.898438 491.378906 L 131.898438 434.050781 L 112.070312 433.621094 L 15.515625 433.621094 L 13.363281 432.757812 L 12.929688 340.515625 L 12.929688 143.964844 L 13.363281 89.65625 L 17.242188 78.015625 L 23.277344 62.070312 L 37.5 24.136719 L 43.101562 9.050781 Z M 89.65625 45.691406 L 89.65625 357.328125 L 104.742188 357.757812 L 184.050781 357.757812 L 186.207031 358.191406 L 186.636719 421.121094 L 188.363281 420.257812 L 250.863281 357.757812 L 369.398438 357.328125 L 373.707031 353.449219 L 382.757812 344.398438 L 384.484375 342.242188 L 387.929688 339.222656 L 407.757812 319.398438 L 407.757812 318.535156 L 408.621094 318.535156 L 408.621094 317.671875 L 409.484375 317.671875 L 411.207031 315.515625 L 414.65625 312.5 L 421.550781 305.601562 L 421.550781 304.742188 L 422.414062 304.742188 L 422.414062 303.878906 L 423.277344 303.878906 L 423.277344 303.015625 L 424.136719 303.015625 L 424.136719 302.15625 L 425 302.15625 L 425 301.292969 L 426.722656 300.429688 L 433.621094 293.535156 L 433.621094 292.671875 L 434.484375 292.671875 L 434.484375 291.808594 L 435.34375 291.808594 L 437.070312 289.65625 L 440.515625 286.636719 L 444.398438 282.757812 L 444.398438 45.691406 Z M 89.65625 45.691406 "/>
<path style=" stroke:none;fill-rule:nonzero;fill:rgb(98.823529%,98.823529%,98.823529%);fill-opacity:1;" d="M 208.621094 131.035156 L 250.863281 131.464844 L 251.292969 131.898438 L 251.292969 260.34375 L 250 261.207031 L 208.621094 261.207031 L 207.328125 259.914062 L 207.328125 132.328125 Z M 208.621094 131.035156 "/>
<path style=" stroke:none;fill-rule:nonzero;fill:rgb(100%,100%,100%);fill-opacity:1;" d="M 326.292969 131.464844 L 369.398438 131.464844 L 369.828125 131.898438 L 369.828125 260.34375 L 366.808594 261.207031 L 326.722656 261.207031 L 325.863281 260.777344 L 325.863281 132.328125 Z M 326.292969 131.464844 "/>
</g>
</svg>
