<?xml version="1.0" encoding="UTF-8"?>
<svg xmlns="http://www.w3.org/2000/svg" xmlns:xlink="http://www.w3.org/1999/xlink" width="500px" height="500px" viewBox="0 0 500 500" version="1.1">
<g id="surface1">
<path style=" stroke:none;fill-rule:nonzero;fill:rgb(100%,100%,100%);fill-opacity:1;" d="M 121.46875 93.476562 L 399.183594 93.75 L 399.457031 94.023438 L 399.726562 279.890625 L 399.457031 284.238281 L 397.28125 286.414062 L 395.925781 288.042969 L 394.023438 289.675781 L 392.664062 291.304688 L 390.761719 292.933594 L 389.402344 294.566406 L 387.5 296.195312 L 386.140625 297.824219 L 384.238281 299.457031 L 382.878906 301.085938 L 380.976562 302.71875 L 379.621094 304.347656 L 377.71875 305.976562 L 376.359375 307.609375 L 374.457031 309.238281 L 373.097656 310.871094 L 371.46875 312.226562 L 369.835938 314.128906 L 368.207031 315.488281 L 366.574219 317.390625 L 364.945312 318.75 L 363.316406 320.652344 L 361.683594 322.011719 L 360.054688 323.914062 L 358.425781 325.273438 L 356.792969 327.175781 L 355.164062 328.53125 L 353.53125 330.433594 L 351.902344 331.792969 L 350.273438 333.695312 L 348.640625 335.054688 L 347.011719 336.957031 L 345.378906 338.316406 L 343.75 340.21875 L 342.121094 341.574219 L 340.488281 343.476562 L 339.945312 343.476562 L 339.402344 344.566406 L 338.859375 344.566406 L 338.316406 345.652344 L 337.773438 345.652344 L 337.226562 346.738281 L 336.683594 346.738281 L 336.140625 347.824219 L 335.597656 347.824219 L 335.054688 348.914062 L 333.425781 350.273438 L 331.792969 352.175781 L 329.890625 353.804688 L 328.53125 355.433594 L 326.628906 357.066406 L 325.273438 358.695312 L 323.371094 360.324219 L 318.207031 365.488281 L 317.664062 365.761719 L 256.792969 366.03125 L 254.621094 367.933594 L 253.261719 369.566406 L 251.085938 371.46875 L 250 372.824219 L 248.097656 374.457031 L 246.738281 376.085938 L 244.835938 377.71875 L 243.476562 379.347656 L 241.574219 380.976562 L 240.21875 382.609375 L 238.316406 384.238281 L 236.957031 385.871094 L 235.054688 387.5 L 233.695312 389.128906 L 231.792969 390.761719 L 230.433594 392.390625 L 228.53125 394.023438 L 226.628906 396.195312 L 223.640625 399.183594 L 221.46875 401.085938 L 220.109375 402.445312 L 218.207031 404.621094 L 216.304688 406.25 L 215.21875 406.523438 L 176.085938 406.523438 L 175.273438 406.25 L 175 402.71875 L 175 366.03125 L 160.054688 365.761719 L 101.359375 365.761719 L 100.273438 365.21875 L 100.273438 148.640625 L 102.175781 142.933594 L 106.25 132.335938 L 112.226562 116.304688 L 116.304688 105.433594 L 120.652344 93.75 Z M 165.21875 120.925781 L 148.371094 121.195312 L 148.371094 317.664062 L 149.726562 317.933594 L 207.878906 317.933594 L 209.238281 318.207031 L 209.511719 357.878906 L 210.597656 357.335938 L 250 317.933594 L 324.726562 317.664062 L 327.445312 315.21875 L 333.152344 309.511719 L 334.238281 308.152344 L 336.414062 306.25 L 348.914062 293.75 L 348.914062 293.207031 L 349.457031 293.207031 L 349.457031 292.664062 L 350 292.664062 L 351.085938 291.304688 L 353.261719 289.402344 L 357.609375 285.054688 L 357.609375 284.511719 L 358.152344 284.511719 L 358.152344 283.96875 L 358.695312 283.96875 L 358.695312 283.425781 L 359.238281 283.425781 L 359.238281 282.878906 L 359.78125 282.878906 L 359.78125 282.335938 L 360.871094 281.792969 L 365.21875 277.445312 L 365.21875 276.902344 L 365.761719 276.902344 L 365.761719 276.359375 L 366.304688 276.359375 L 367.390625 275 L 369.566406 273.097656 L 372.011719 270.652344 L 372.011719 121.195312 L 362.5 120.925781 Z M 165.21875 120.925781 "/>
<path style=" stroke:none;fill-rule:nonzero;fill:rgb(98.823529%,98.823529%,98.823529%);fill-opacity:1;" d="M 223.371094 175 L 250 175.273438 L 250.273438 175.542969 L 250.273438 256.523438 L 249.457031 257.066406 L 223.371094 257.066406 L 222.554688 256.25 L 222.554688 175.816406 Z M 223.371094 175 "/>
<path style=" stroke:none;fill-rule:nonzero;fill:rgb(100%,100%,100%);fill-opacity:1;" d="M 297.554688 175.273438 L 324.726562 175.273438 L 325 175.542969 L 325 256.523438 L 323.097656 257.066406 L 297.824219 257.066406 L 297.28125 256.792969 L 297.28125 175.816406 Z M 297.554688 175.273438 "/>
</g>
</svg>
